<svg version="1.1" xmlns="http://www.w3.org/2000/svg" xmlns:xlink="http://www.w3.org/1999/xlink" width="181.67897" height="110.06027" viewBox="0,0,181.67897,110.06027"><g transform="translate(-148.64055,-118.8472)"><g stroke="none" stroke-miterlimit="10"><path d="M254.99274,168.65342c2.53761,-4.44082 5.3186,-7.7655 8.1985,-10.16608c15.42199,-12.85518 33.68048,0.78959 32.59117,11.44431c0.50586,-0.33558 1.00396,-0.68192 1.49397,-1.03871c4.39304,0.75529 8.14796,2.06136 10.76916,3.97755l0.18839,-0.02366c12.48025,10.12776 10.06487,18.68279 1.17483,24.4428c24.17539,6.96154 24.86266,14.35264 14.77896,20.23686c-4.33274,7.14385 -24.68325,10.83085 -44.18607,10.81878c-11.30395,0.94162 -22.36895,0.75253 -30.5872,-0.96438c-30.93478,-6.4627 -28.60871,-29.80726 -4.54446,-37.37785c-2.28377,-6.77896 3.39625,-12.37132 12.29237,-16.20881c0.32773,0.13321 0.65754,0.26237 0.98938,0.3874z" fill="#b15608" stroke-width="0.5"/><text transform="translate(149.68049,203.08255) scale(2.07989,2.07989)" font-size="40" xml:space="preserve" fill="#32b100" stroke-width="1" font-family="&quot;Impact&quot;, Sans Serif" font-weight="normal" text-anchor="start"><tspan x="0" dy="0">&lt;/&gt;</tspan></text></g></g></svg>
